<svg width="60" height="32" viewBox="0 0 60 32" fill="none" xmlns="http://www.w3.org/2000/svg">
<path fill-rule="evenodd" clip-rule="evenodd" d="M12 0C5.37258 0 0 5.37258 0 12C0 18.6274 5.37258 24 12 24H12.3812L17 32L21.6188 24H48C54.6274 24 60 18.6274 60 12C60 5.37258 54.6274 0 48 0H12Z" fill="#7474FF"/>
<path d="M17.4821 15.628C15.2501 15.628 13.8341 14.2 13.8341 11.5V11.26C13.8341 8.668 15.2741 7.132 17.5301 7.132C19.7621 7.132 21.1661 8.56 21.1661 11.272V11.512C21.1661 14.104 19.7381 15.628 17.4821 15.628ZM17.5181 14.644C19.0901 14.644 19.8341 13.396 19.8341 11.68V11.284C19.8341 9.388 19.2221 8.14 17.4701 8.128C15.8981 8.128 15.1661 9.376 15.1661 11.068V11.488C15.1661 13.372 15.8021 14.644 17.5181 14.644ZM22.6455 15.496V7.276H25.3575C27.2415 7.276 28.1655 8.164 28.1655 9.748C28.1655 11.44 27.0855 12.328 25.4655 12.328H23.8815V15.496H22.6455ZM23.8815 11.356H25.2255C26.4135 11.356 26.8575 10.852 26.8575 9.844C26.8575 8.728 26.4255 8.284 25.2495 8.284H23.8815V11.356ZM29.501 15.496V7.276H34.493V8.308H30.737V10.756H33.653V11.776H30.737V14.464H34.541V15.496H29.501ZM36.1807 15.496V7.276H37.6087L41.2327 13.432H41.2687V7.276H42.3847V15.496H41.1367L37.3447 8.98H37.2967V15.496H36.1807ZM44.4698 13.12L44.3138 7H45.6938L45.5378 13.12H44.4698ZM44.3498 15.628V14.332H45.6698V15.628H44.3498Z" fill="#FCFCFC"/>
</svg>
