<svg width="208" height="61" viewBox="0 0 208 61" fill="none" xmlns="http://www.w3.org/2000/svg">
<path d="M46.57 7.974V1.744H45.324V7.974H46.57ZM47.004 13.896V12.874H39.85V11.67H46.57V8.604H38.576V9.612H45.324V10.746H38.618V13.896H47.004ZM40.004 2.15C38.24 2.15 36.868 3.312 36.868 4.95C36.868 6.616 38.282 7.652 40.004 7.652C41.754 7.652 43.126 6.574 43.126 4.936C43.126 3.284 41.754 2.15 40.004 2.15ZM40.004 3.214C41.166 3.214 41.908 3.928 41.908 4.936C41.908 5.888 41.152 6.616 40.004 6.616C38.912 6.616 38.086 5.93 38.086 4.936C38.086 3.928 38.94 3.214 40.004 3.214ZM60.0413 7.89V6.868H58.1653V1.744H56.9333V13.98H58.1653V7.89H60.0413ZM56.2753 10.984L56.1213 10.018C55.0853 10.172 53.7553 10.256 52.2013 10.326V6.49H50.9973V10.368C50.1013 10.396 49.1073 10.396 48.3653 10.396L48.5473 11.432C49.5413 11.432 50.8293 11.404 52.0613 11.348C53.3213 11.278 55.1133 11.152 56.2753 10.984ZM55.4773 2.976H49.0933V3.984H54.2313C54.2313 5.608 54.1193 7.386 53.8813 8.436L55.0713 8.59C55.3513 7.386 55.4773 5.188 55.4773 2.976ZM75.7063 5.636V4.614H73.8863V1.744H72.6403V8.352H73.8863V5.636H75.7063ZM74.0823 13.966V8.996H70.2463V13.966H74.0823ZM72.9483 13.028H71.3803V9.934H72.9483V13.028ZM69.7703 13.686L69.6443 12.734C68.9163 12.916 67.9783 13 66.7883 13V11.866H69.4203V8.996H65.5283V9.948H68.2163V10.984H65.5843V13.938H66.8163C67.9643 13.924 69.0843 13.826 69.7703 13.686ZM71.3943 6.826C70.0643 6.406 68.4823 5.146 68.4823 3.214V2.234H67.2223V3.256C67.2223 5.188 65.8363 6.574 64.1843 7.204L64.9263 8.142C66.2843 7.554 67.5023 6.448 67.8803 5.188C68.4403 6.462 69.6303 7.33 70.6803 7.778L71.3943 6.826ZM91.5813 7.638V6.616H89.6773V1.744H88.4453V13.98H89.6773V7.638H91.5813ZM87.4373 10.074C85.7153 9.01 84.3433 7.078 84.3433 4.782V2.794H83.0693V4.838C83.0693 7.092 81.7673 9.22 79.9193 10.382L80.6893 11.306C82.0753 10.382 83.2933 8.828 83.7133 7.344C84.1753 8.758 85.6033 10.284 86.6953 10.998L87.4373 10.074ZM102.435 13.98V1.744H101.189V13.98H102.435ZM92.7746 6.98C92.7746 9.416 93.7546 11.32 95.9246 11.32C98.0946 11.32 99.0606 9.416 99.0606 6.994C99.0606 4.558 98.0946 2.668 95.9246 2.668C93.7546 2.668 92.7746 4.558 92.7746 6.98ZM97.8286 6.994C97.8286 8.884 97.1846 10.242 95.9246 10.242C94.6786 10.242 94.0346 8.884 94.0346 6.994C94.0346 5.104 94.6786 3.732 95.9246 3.732C97.1846 3.732 97.8286 5.104 97.8286 6.994ZM113.358 1.744V13.98H114.576V1.744H113.358ZM111.594 5.608C111.594 3.858 110.194 2.724 108.388 2.724C106.596 2.724 105.196 3.914 105.196 5.608C105.196 7.26 106.582 8.394 108.388 8.394C110.166 8.394 111.594 7.302 111.594 5.608ZM110.376 5.594C110.376 6.658 109.452 7.358 108.388 7.358C107.31 7.358 106.428 6.644 106.428 5.594C106.428 4.53 107.31 3.76 108.388 3.76C109.494 3.76 110.376 4.474 110.376 5.594ZM112.7 10.886L112.574 9.906C111.594 10.018 110.152 10.116 108.416 10.186C106.974 10.256 105.546 10.27 104.37 10.27L104.566 11.334C105.546 11.32 106.834 11.292 108.22 11.222C109.774 11.138 111.58 11.026 112.7 10.886ZM129.835 2.416H121.687V3.424H128.575C128.589 4.558 128.477 5.86 128.239 6.91H120.245V7.918H123.731V10.97H124.963V7.918H127.091V11.04H128.337V7.918H131.291V6.91H129.471C129.751 5.65 129.835 4.208 129.835 2.416ZM130.003 13.602V12.608H122.919V9.906H121.687V13.602H130.003ZM142.466 11.852C142.466 10.522 140.996 9.71 138.35 9.71C135.704 9.71 134.276 10.508 134.276 11.852C134.276 13.196 135.704 13.98 138.35 13.98C140.996 13.98 142.466 13.196 142.466 11.852ZM138.35 10.676C140.142 10.676 141.178 11.124 141.178 11.852C141.178 12.594 140.142 13.028 138.35 13.028C136.572 13.028 135.55 12.58 135.55 11.852C135.55 11.138 136.572 10.676 138.35 10.676ZM139.246 5.986H141.15V7.274H139.246V8.254H141.15V9.598H142.396V1.744H141.15V4.992H139.246V5.986ZM137.636 2.92V1.912H134.08V2.92H137.636ZM139.022 4.684V3.69H132.372V4.684H139.022ZM138.644 7.218C138.644 5.972 137.426 5.188 135.816 5.188C134.178 5.188 132.988 5.972 132.988 7.218C132.988 8.45 134.192 9.234 135.816 9.234C137.426 9.234 138.644 8.436 138.644 7.218ZM137.412 7.218C137.412 7.862 136.67 8.282 135.816 8.282C134.962 8.282 134.206 7.862 134.206 7.218C134.206 6.56 134.962 6.14 135.816 6.14C136.67 6.14 137.412 6.56 137.412 7.218ZM158.453 13.084C156.619 12.972 154.799 11.698 154.505 10.508H157.809V9.514H149.773V10.508H153.119C152.825 11.74 151.047 12.972 149.115 13.084L149.745 14.036C151.621 13.798 153.357 12.552 153.791 11.586C154.239 12.538 156.129 13.812 157.823 14.05L158.453 13.084ZM155.121 7.68C153.833 7.358 152.531 6.392 152.293 4.978H154.939V3.984H148.275V4.978H150.935C150.725 6.434 149.465 7.582 147.939 8.044L148.611 8.996C149.955 8.534 151.215 7.4 151.621 6.294C152.167 7.386 153.441 8.324 154.477 8.66L155.121 7.68ZM159.419 5.958V4.936H157.599V1.744H156.367V8.884H157.599V5.958H159.419ZM153.315 3.004V1.996H149.913V3.004H153.315ZM170.3 13.98V1.744H169.054V13.98H170.3ZM166.716 3.046H160.822V4.096H165.372C165.148 6.728 163.16 9.29 160.276 10.676L161.032 11.614C164.378 9.794 166.646 6.938 166.716 3.046Z" fill="#525252"/>
<path d="M0.0706582 58.0462C0.847898 55.9363 1.41316 53.756 1.83711 51.6462C7.20713 53.6857 11.8706 54.811 17.8059 54.811C23.7411 54.811 27.2034 54.7407 27.2034 51.0835C27.2034 47.4264 24.5184 48.6923 17.8765 48.3407C9.82149 47.8484 1.13053 47.356 1.13053 38.9165C1.13053 30.4769 9.82149 29 16.8166 29C23.8118 29 26.1435 29.633 31.0896 30.8286C30.5243 32.8681 29.9591 35.4 29.6764 37.3692C25.4369 36.033 21.2681 35.189 15.7568 35.189C10.2454 35.189 7.13648 35.189 7.13648 38.7055C7.13648 42.222 12.5065 41.9407 18.0885 42.1516C25.9315 42.5033 33.28 43.4176 33.28 50.8725C33.28 58.3275 23.5998 61 16.6753 61C9.75083 61 5.65265 60.156 0 58.1165L0.0706582 58.0462Z" fill="#FCFCFC"/>
<path d="M42.6284 51.0605C43.5875 53.5983 46.3911 54.8671 52.1458 54.8671C57.9005 54.8671 62.6961 53.5278 63.8027 52.9638C64.0241 54.9376 64.393 57.0524 64.9832 59.1672C63.5076 59.7311 58.4169 61 52.3671 61C41.3004 61 35.8408 56.7704 35.8408 49.0162C35.8408 41.262 40.5626 36.68 50.4489 36.68C60.3352 36.68 67.5654 41.4735 64.6143 51.131H42.5546L42.6284 51.0605ZM42.4809 46.69H58.3432C58.9334 44.2227 56.056 42.6014 50.8178 42.6014C45.5795 42.6014 43.3662 44.0817 42.6284 46.267L42.4809 46.69Z" fill="#FCFCFC"/>
<path d="M73.3472 51.0605C74.3063 53.5983 77.1098 54.8671 82.8645 54.8671C88.6192 54.8671 93.4148 53.5278 94.5215 52.9638C94.7428 54.9376 95.1117 57.0524 95.7019 59.1672C94.2264 59.7311 89.1357 61 83.0859 61C72.0191 61 66.5596 56.7704 66.5596 49.0162C66.5596 41.262 71.2814 36.68 81.1676 36.68C91.0539 36.68 98.2842 41.4735 95.333 51.131H73.2734L73.3472 51.0605ZM73.1996 46.69H89.0619C89.6521 44.2227 86.7748 42.6014 81.5365 42.6014C76.2983 42.6014 74.0849 44.0817 73.3472 46.267L73.1996 46.69Z" fill="#FCFCFC"/>
<path d="M98.6329 58.0462C99.4401 55.9363 100.027 53.756 100.467 51.6462C106.044 53.6857 110.887 54.811 117.05 54.811C123.214 54.811 126.809 54.7407 126.809 51.0835C126.809 47.4264 124.021 48.6923 117.124 48.3407C108.759 47.8484 99.7336 47.356 99.7336 38.9165C99.7336 30.4769 108.759 29 116.023 29C123.287 29 125.709 29.633 130.845 30.8286C130.258 32.8681 129.671 35.4 129.377 37.3692C124.975 36.033 120.646 35.189 114.922 35.189C109.199 35.189 105.971 35.189 105.971 38.7055C105.971 42.222 111.547 41.9407 117.344 42.1516C125.488 42.5033 133.12 43.4176 133.12 50.8725C133.12 58.3275 123.067 61 115.876 61C108.685 61 104.43 60.156 98.5596 58.1165L98.6329 58.0462Z" fill="#FCFCFC"/>
<path d="M160.061 60.9295C155.218 60.9295 154.929 58.3213 154.856 56.9114C152.832 59.3787 148.134 60.9295 144.375 60.9295C138.448 60.9295 134.4 57.9688 134.4 52.6114C134.4 47.2539 139.605 45.4916 144.881 45.4916C150.158 45.4916 152.543 46.267 154.567 46.9719C154.35 44.6457 152.326 42.7424 146.688 42.7424C141.05 42.7424 138.593 43.9407 137.653 44.5752C137.147 42.5309 136.497 40.4866 135.701 38.3718C136.93 37.8784 141.484 36.68 146.688 36.68C156.952 36.68 160.711 41.403 160.711 47.7474V53.3868C160.711 54.2327 161 54.9376 162.735 54.9376C164.47 54.9376 164.108 54.8671 165.12 54.6556C164.904 55.995 164.759 59.0262 164.759 60.3656C162.663 60.7885 161.362 61 160.061 61V60.9295ZM145.387 55.3606C149.291 55.3606 154.35 53.3163 154.567 50.6376V49.7916H144.52C142.568 49.7916 140.617 50.2851 140.617 52.1179C140.617 53.9507 142.785 55.2901 145.387 55.2901V55.3606Z" fill="#FCFCFC"/>
<path d="M187.862 52.5775L185.46 45.6168L183.057 52.5775L179.737 60.8607C177.547 60.8607 175.498 60.8607 173.378 61L167.303 45.6864C166.243 42.9717 165.183 40.4658 163.841 37.96C165.113 38.0992 166.314 38.0992 167.585 38.0992C168.857 38.0992 170.129 38.0992 171.33 37.96C171.895 40.5354 172.743 43.1805 173.661 45.6864L175.286 50.002L176.628 54.0392L177.971 50.002L182.351 38.2384C184.541 38.2384 186.731 38.2384 188.851 38.0992L193.231 50.002L194.573 54.0392L195.916 50.002L197.541 45.6864C198.459 43.1805 199.307 40.5354 199.872 37.96C201.144 38.0992 202.345 38.0992 203.616 38.0992C204.888 38.0992 206.16 38.0992 207.361 37.96C206.16 40.6746 204.959 43.0413 203.899 45.6864L197.894 60.8607C195.633 60.8607 193.655 60.8607 191.535 61L188.144 52.5775H187.862Z" fill="#FCFCFC"/>
</svg>
