<svg width="110" height="18" viewBox="0 0 110 18" fill="none" xmlns="http://www.w3.org/2000/svg">
<path d="M0.0377617 15.9729C0.45314 14.8452 0.755233 13.6799 0.981804 12.5522C3.85169 13.6423 6.34396 14.2438 9.51594 14.2438C12.6879 14.2438 14.5382 14.2062 14.5382 12.2515C14.5382 10.2969 13.1033 10.9735 9.5537 10.7855C5.24887 10.5224 0.604187 10.2593 0.604187 5.74848C0.604187 1.2377 5.24887 0.448318 8.98728 0.448318C12.7257 0.448318 13.9718 0.786627 16.6151 1.42565C16.313 2.51576 16.011 3.86899 15.8599 4.92151C13.5942 4.2073 11.3663 3.75622 8.42085 3.75622C5.47544 3.75622 3.81393 3.75622 3.81393 5.63571C3.81393 7.51521 6.68382 7.36485 9.66699 7.47762C13.8585 7.66557 17.7857 8.15423 17.7857 12.1388C17.7857 16.1233 12.6124 17.5517 8.91176 17.5517C5.21111 17.5517 3.02093 17.1006 0 16.0105L0.0377617 15.9729Z" fill="#B0B0B0"/>
<path d="M22.5437 12.2514C23.0346 13.6046 24.4695 14.2812 27.4149 14.2812C30.3603 14.2812 32.8148 13.567 33.3813 13.2663C33.4945 14.3188 33.6833 15.4465 33.9854 16.5742C33.2302 16.8749 30.6247 17.5516 27.5282 17.5516C21.8639 17.5516 19.0696 15.2962 19.0696 11.1613C19.0696 7.02641 21.4863 4.58307 26.5464 4.58307C31.6065 4.58307 35.3071 7.13918 33.7966 12.289H22.5059L22.5437 12.2514ZM22.4681 9.92082H30.5869C30.889 8.60518 29.4163 7.74061 26.7352 7.74061C24.0541 7.74061 22.9213 8.53 22.5437 9.69529L22.4681 9.92082Z" fill="#B0B0B0"/>
<path d="M39.121 12.2514C39.6119 13.6046 41.0469 14.2812 43.9923 14.2812C46.9377 14.2812 49.3922 13.567 49.9586 13.2663C50.0719 14.3188 50.2607 15.4465 50.5628 16.5742C49.8076 16.8749 47.202 17.5516 44.1056 17.5516C38.4413 17.5516 35.647 15.2962 35.647 11.1613C35.647 7.02641 38.0637 4.58307 43.1238 4.58307C48.1838 4.58307 51.8845 7.13918 50.374 12.289H39.0833L39.121 12.2514ZM39.0455 9.92082H47.1643C47.4664 8.60518 45.9937 7.74061 43.3126 7.74061C40.6315 7.74061 39.4987 8.53 39.121 9.69529L39.0455 9.92082Z" fill="#B0B0B0"/>
<path d="M52.4887 15.9729C52.9041 14.8452 53.2062 13.6799 53.4327 12.5522C56.3026 13.6423 58.7949 14.2438 61.9669 14.2438C65.1388 14.2438 66.9892 14.2062 66.9892 12.2515C66.9892 10.2969 65.5542 10.9735 62.0046 10.7855C57.6998 10.5224 53.0551 10.2593 53.0551 5.74848C53.0551 1.2377 57.6998 0.448318 61.4382 0.448318C65.1766 0.448318 66.4227 0.786627 69.0661 1.42565C68.764 2.51576 68.4619 3.86899 68.3108 4.92151C66.0451 4.2073 63.8172 3.75622 60.8718 3.75622C57.9264 3.75622 56.2649 3.75622 56.2649 5.63571C56.2649 7.51521 59.1347 7.36485 62.1179 7.47762C66.3095 7.66557 70.2367 8.15423 70.2367 12.1388C70.2367 16.1233 65.0633 17.5517 61.3627 17.5517C57.662 17.5517 55.4719 17.1006 52.4509 16.0105L52.4887 15.9729Z" fill="#B0B0B0"/>
<path d="M84.9637 17.514C82.4337 17.514 82.2827 16.1231 82.2449 15.3713C81.1876 16.687 78.7331 17.514 76.7695 17.514C73.673 17.514 71.5583 15.9352 71.5583 13.0784C71.5583 10.2215 74.2772 9.2818 77.0338 9.2818C79.7904 9.2818 81.0365 9.69529 82.0939 10.0712C81.9806 8.83072 80.9232 7.81579 77.9778 7.81579C75.0324 7.81579 73.7485 8.45482 73.2576 8.79313C72.9933 7.70302 72.6534 6.61292 72.2381 5.48522C72.88 5.2221 75.259 4.58307 77.9778 4.58307C83.34 4.58307 85.3036 7.10159 85.3036 10.4847V13.4919C85.3036 13.9429 85.4546 14.3188 86.3609 14.3188C87.2672 14.3188 87.0784 14.2812 87.6071 14.1685C87.4938 14.8827 87.4183 16.499 87.4183 17.2133C86.3232 17.4388 85.6435 17.5516 84.9637 17.5516V17.514ZM77.2981 14.5444C79.3373 14.5444 81.9806 13.4543 82.0939 12.0259V11.5748H76.845C75.8254 11.5748 74.8059 11.8379 74.8059 12.8152C74.8059 13.7926 75.9387 14.5068 77.2981 14.5068V14.5444Z" fill="#B0B0B0"/>
<path d="M99.5777 12.7024L98.2938 8.94344L97.0099 12.7024L95.2351 17.1756C94.0645 17.1756 92.9694 17.1756 91.8366 17.2508L88.5891 8.98103C88.0227 7.51502 87.4562 6.16179 86.7388 4.80856C87.4185 4.88374 88.0604 4.88374 88.7401 4.88374C89.4198 4.88374 90.0996 4.88374 90.7415 4.80856C91.0436 6.19938 91.4967 7.62779 91.9876 8.98103L92.8562 11.3116L93.5736 13.4918L94.2911 11.3116L96.6323 4.95891C97.8029 4.95891 98.9736 4.95891 100.106 4.88374L102.448 11.3116L103.165 13.4918L103.883 11.3116L104.751 8.98103C105.242 7.62779 105.695 6.19938 105.997 4.80856C106.677 4.88374 107.319 4.88374 107.999 4.88374C108.678 4.88374 109.358 4.88374 110 4.80856C109.358 6.27456 108.716 7.55261 108.15 8.98103L104.94 17.1756C103.732 17.1756 102.674 17.1756 101.541 17.2508L99.7288 12.7024H99.5777Z" fill="#B0B0B0"/>
</svg>
