<svg width="24" height="24" viewBox="0 0 24 24" fill="none" xmlns="http://www.w3.org/2000/svg">
<path d="M4.2179 24.0002H19.7821C22.5679 24.0002 24 22.5695 24 19.8289V4.19712C24 1.45414 22.5679 0.0258789 19.7821 0.0258789H4.2179C1.44265 0.0258789 0 1.44361 0 4.19712V19.8289C0 22.5802 1.44265 24.0002 4.2179 24.0002Z" fill="#00D38D"/>
<path d="M10.6009 18.3369C10.1151 18.3369 9.71804 18.1271 9.36059 17.6613L6.20731 13.8325C5.97973 13.5387 5.85938 13.2422 5.85938 12.9167C5.85938 12.2625 6.38115 11.7318 7.04436 11.7318C7.44141 11.7318 7.74743 11.8681 8.08044 12.292L10.5564 15.4353L15.8731 6.93164C16.1544 6.49315 16.5188 6.26221 16.9216 6.26221C17.5531 6.26221 18.1451 6.71227 18.1451 7.3853C18.1451 7.68174 17.9977 7.99565 17.8098 8.29081L11.792 17.6521C11.4988 18.1014 11.0797 18.3369 10.6009 18.3369Z" fill="white"/>
</svg>
