<svg width="28" height="28" viewBox="0 0 28 28" fill="none" xmlns="http://www.w3.org/2000/svg">
<g clip-path="url(#clip0_1733_1615)">
<path d="M22.4824 28.0002H5.51765C2.47059 28.0002 0 25.5296 0 22.5237V11.5296C0 9.80016 0.82353 8.19428 2.18235 7.16486L10.2529 1.11192C12.1471 -0.288077 14.7412 -0.37043 16.6765 0.988394L25.6118 7.12369C27.0941 8.1531 28 9.84134 28 11.6119V22.5237C28 25.5296 25.5294 28.0002 22.4824 28.0002ZM13.5882 2.05898C12.8471 2.05898 12.1471 2.30604 11.5294 2.75898L3.41765 8.77075C2.55294 9.42957 2.05882 10.4178 2.05882 11.4884V22.4825C2.05882 24.3766 3.62353 25.9002 5.51765 25.9002H22.4824C24.3765 25.9002 25.9412 24.3766 25.9412 22.4825V11.6119C25.9412 10.5002 25.4059 9.42957 24.4588 8.81192L15.5235 2.67663C14.9471 2.26486 14.2471 2.05898 13.5471 2.05898H13.5882Z" fill="#E0E0E0"/>
<path d="M17.294 17.9943C17.1293 17.7472 16.9646 17.5414 16.6764 17.4178C16.1823 17.1296 15.5235 17.1296 15.0293 17.4178C14.7823 17.5825 14.5764 17.7472 14.4117 17.9943C14.247 18.2414 14.2058 18.5296 14.2058 18.8178C14.2058 19.1061 14.2882 19.3943 14.4117 19.6414C14.5764 19.8884 14.7823 20.0943 15.0293 20.259C15.2764 20.4237 15.5646 20.4649 15.8529 20.4649C16.1411 20.4649 16.4293 20.3825 16.6764 20.259C16.9235 20.0943 17.1293 19.9296 17.294 19.6414C17.4588 19.3943 17.4999 19.1061 17.4999 18.8178C17.4999 18.5296 17.4176 18.2414 17.294 17.9943ZM16.4705 18.8178C16.4705 18.9825 16.4293 19.1472 16.3058 19.2708C16.0588 19.5178 15.6882 19.5178 15.4823 19.2708C15.3588 19.1472 15.3176 18.9825 15.3176 18.8178C15.3176 18.6531 15.3588 18.4884 15.4823 18.3649C15.6058 18.2414 15.7293 18.2002 15.894 18.2002C16.0588 18.2002 16.1823 18.2414 16.3058 18.3649C16.4293 18.4884 16.4705 18.612 16.4705 18.8178Z" fill="#E0E0E0"/>
<path d="M16.9646 13.9589C16.9646 13.7942 16.8823 13.6707 16.7999 13.5472C16.6764 13.4236 16.5529 13.3825 16.3882 13.4236C16.2235 13.4236 16.0999 13.5472 15.9764 13.6707L11.1176 19.5178C10.9941 19.6413 10.9529 19.806 10.9529 19.9295C10.9529 20.0942 11.0352 20.2178 11.1176 20.3413C11.1999 20.4236 11.3235 20.4648 11.447 20.4648C11.5705 20.4648 11.5294 20.4648 11.5294 20.4648C11.6941 20.4648 11.8176 20.3413 11.8999 20.2178L16.7588 14.3707C16.8823 14.2472 16.9235 14.0825 16.9235 13.9589H16.9646Z" fill="#E0E0E0"/>
<path d="M11.3234 16.4709C11.5705 16.6356 11.8587 16.6768 12.147 16.6768C12.4352 16.6768 12.7234 16.5945 12.9705 16.4709C13.2176 16.3062 13.4234 16.1415 13.5882 15.8533C13.7529 15.6062 13.794 15.318 13.794 15.0298C13.794 14.7415 13.7117 14.4533 13.5882 14.2062C13.4234 13.9592 13.2176 13.7533 12.9705 13.6298C12.4764 13.3415 11.8176 13.3415 11.2823 13.6298C11.0352 13.7945 10.8293 13.9592 10.6646 14.2062C10.4999 14.4533 10.4587 14.7415 10.4587 15.0298C10.4587 15.318 10.5411 15.6062 10.6646 15.8533C10.8293 16.1003 11.0352 16.3062 11.2823 16.4709H11.3234ZM11.5293 15.0298C11.5293 14.865 11.5705 14.7003 11.694 14.5768C11.8176 14.4533 11.9411 14.4121 12.1058 14.4121C12.2705 14.4121 12.394 14.4533 12.5176 14.5768C12.6411 14.7003 12.6823 14.8239 12.6823 14.9886C12.6823 15.1533 12.6411 15.318 12.5176 15.4415C12.2705 15.6886 11.8999 15.6886 11.6529 15.4415C11.5293 15.318 11.4882 15.1533 11.4882 14.9886L11.5293 15.0298Z" fill="#E0E0E0"/>
</g>
<defs>
<clipPath id="clip0_1733_1615">
<rect width="28" height="28" fill="white"/>
</clipPath>
</defs>
</svg>
