<svg width="132" height="32" viewBox="0 0 132 32" fill="none" xmlns="http://www.w3.org/2000/svg">
<path fill-rule="evenodd" clip-rule="evenodd" d="M12 0C5.37258 0 0 5.37258 0 12C0 18.6274 5.37258 24 12 24H12.3812L17 32L21.6188 24H120C126.627 24 132 18.6274 132 12C132 5.37258 126.627 0 120 0H12Z" fill="#525252"/>
<path d="M17.874 13.51H13.784V7.84H17.874V13.51ZM16.984 12.8V8.56H14.664V12.8H16.984ZM21.654 11.16H20.254V15.7H19.364V6.96H20.254V10.43H21.654V11.16ZM27.5364 12.96L27.0164 13.62C26.1764 13.13 25.1464 12.03 24.8664 11.06C24.6164 12.09 23.7164 13.21 22.6764 13.82L22.1164 13.18C23.4464 12.4 24.4064 10.97 24.4064 9.26V8.56H22.4264V7.84H27.2764V8.56H25.3164V9.26C25.3164 10.95 26.2964 12.29 27.5364 12.96ZM28.4764 6.96H29.3664V15.7H28.4764V6.96ZM37.5587 15.71H36.6787V13.26H31.8987V12.55H37.5587V15.71ZM35.3087 11.46H31.1187V7.57H35.3087V11.46ZM34.4187 10.75V8.28H31.9887V10.75H34.4187ZM38.8587 9.88H37.5587V12.09H36.6687V6.96H37.5587V9.14H38.8587V9.88ZM47.978 14.03C47.238 14.12 46.068 14.22 44.998 14.28C44.038 14.32 42.978 14.37 42.248 14.37L42.098 13.63C42.818 13.63 43.668 13.61 44.528 13.57V12.77C43.538 12.64 42.878 12.09 42.878 11.32C42.878 10.43 43.758 9.85 44.988 9.85C46.238 9.85 47.108 10.42 47.108 11.32C47.108 12.1 46.428 12.66 45.408 12.78V13.52C46.338 13.48 47.298 13.41 47.898 13.33L47.978 14.03ZM49.318 15.7H48.438V6.96H49.318V15.7ZM47.618 9.4H42.408V8.69H47.618V9.4ZM46.188 11.32C46.188 10.88 45.688 10.55 44.988 10.55C44.298 10.55 43.808 10.88 43.808 11.32C43.808 11.75 44.298 12.09 44.988 12.09C45.688 12.09 46.188 11.75 46.188 11.32ZM46.208 8.09H43.678V7.38H46.208V8.09ZM58.6304 14.43H50.7404V13.7H53.7404V10.76H54.6304V13.7H58.6304V14.43ZM57.6104 7.77V9.11C57.5904 10.51 57.4904 11.62 57.2404 12.68C56.9604 12.63 56.6804 12.58 56.3904 12.54C56.5804 11.79 56.7004 10.57 56.7004 9.54V8.49H51.5504V7.77H57.6104ZM67.2827 11.68H59.3927V11H67.2827V11.68ZM66.6527 15.54H60.2927V13.61H65.4927V12.96H60.2927V12.29H66.3727V14.23H61.1727V14.87H66.6527V15.54ZM66.5027 10.38H60.3827V8.53H65.4427V7.92H60.3927V7.26H66.3227V9.13H61.2727V9.72H66.5027V10.38ZM78.562 14.52H70.672V13.8H78.562V14.52ZM74.522 11.14L73.962 11.75C73.492 11.48 72.982 10.93 72.782 10.46C72.532 11.09 71.892 11.81 71.172 12.19L70.632 11.56C71.712 10.99 72.362 9.99 72.362 8.83V7.82H73.212V8.83C73.212 9.95 73.702 10.71 74.522 11.14ZM78.552 11.35L78.042 12.01C77.462 11.74 76.772 11.08 76.482 10.48C76.252 11.15 75.552 11.89 74.972 12.23L74.402 11.64C75.402 11.08 76.052 10.05 76.052 8.88V7.77H76.912V8.88C76.912 10.14 77.582 10.91 78.552 11.35ZM83.7643 11.85H79.7243V7.73H83.7643V11.85ZM85.6043 9.13H84.1943V8.42H85.6043V6.96H86.4943V13.31H85.6043V11.06H84.1943V10.35H85.6043V9.13ZM86.6843 15.43H80.8243V12.74H81.7043V14.71H86.6843V15.43ZM82.8943 11.15V8.44H80.5943V11.15H82.8943ZM98.0836 15.64H92.1336V13.4H96.8836V12.61H92.0836V11.89H97.7736V14.06H93.0136V14.91H98.0836V15.64ZM95.4136 8.64L95.4036 7.9H96.8836V6.96H97.7736V11.51H96.8836V10.51H95.4036L95.4136 9.77H96.8836V8.64H95.4136ZM92.9136 7.29C94.1536 7.29 95.1236 8.14 95.1236 9.36C95.1236 10.59 94.1536 11.39 92.9136 11.39C91.7036 11.39 90.7036 10.61 90.7036 9.37C90.7036 8.15 91.6736 7.29 92.9136 7.29ZM92.9136 8.08C92.1736 8.08 91.5836 8.62 91.5836 9.36C91.5836 10.08 92.1436 10.6 92.9136 10.6C93.7136 10.6 94.2236 10.06 94.2236 9.36C94.2236 8.62 93.7236 8.08 92.9136 8.08ZM103.966 12.71L104.056 13.42C103.146 13.56 101.836 13.65 100.366 13.65H99.556V10.17H102.536V8.47H99.556V7.75H103.416V10.89H100.436V12.93C101.416 12.93 102.856 12.9 103.966 12.71ZM104.006 12.09V11.37H105.536V9.84H104.006V9.11H105.536V6.96H106.416V15.7H105.536V12.09H104.006ZM115.108 9.81C115.108 11.17 113.808 12.07 111.848 12.07C109.898 12.07 108.598 11.17 108.598 9.81C108.598 8.45 109.898 7.54 111.848 7.54C113.818 7.54 115.108 8.45 115.108 9.81ZM114.198 9.81C114.198 8.89 113.268 8.27 111.848 8.27C110.438 8.27 109.508 8.89 109.508 9.81C109.508 10.72 110.438 11.34 111.848 11.34C113.258 11.34 114.198 10.72 114.198 9.81ZM115.798 14.59H107.908V13.87H109.798V12.32L110.688 12.29V13.87H112.998V12.29L113.878 12.32V13.87H115.798V14.59ZM117.151 12.99L117.041 7.54H118.011L117.901 12.99H117.151ZM117.051 14.75V13.78H118.021V14.75H117.051Z" fill="#FCFCFC"/>
</svg>
